   <svg xmlns="http://www.w3.org/2000/svg" viewBox="0 0 800 800">
      <defs>
        <linearGradient
          id="sssquiggly-grad"
          x1="50%"
          x2="50%"
          y1="0%"
          y2="100%"
          gradientTransform="rotate(270)"
        >
          <stop offset="0%" stopColor="hsla(180, 75%, 49%, 1.00)"></stop>
          <stop offset="100%" stopColor="hsla(239, 90%, 56%, 1.00)"></stop>
        </linearGradient>
      </defs>
      <g
        fill="none"
        stroke="url(#sssquiggly-grad)"
        strokeLinecap="round"
        strokeWidth="0.5"
        transform="translate(-5 107.58)"
      >
        <path d="M10 10c13.068 1.875 34.508 15.875 62.727 9 28.22-6.875 42.425-44.917 72.728-42 30.303 2.917 42.424 52.458 72.727 56 30.303 3.542 42.424-38.583 72.727-39 30.303-.417 42.424 38.042 72.727 37 30.303-1.042 42.425-42.625 72.728-42 30.303.625 42.424 44.792 72.727 45 30.303.208 42.424-43.792 72.727-44 30.303-.208 42.424 40.917 72.727 43 30.303 2.083 42.425-34.042 72.728-33C757.576 1.042 784.848 30.083 800 38M10 580c13.068 1.875 34.508 15.875 62.727 9 28.22-6.875 42.425-44.917 72.728-42 30.303 2.917 42.424 52.458 72.727 56 30.303 3.542 42.424-38.583 72.727-39 30.303-.417 42.424 38.042 72.727 37 30.303-1.042 42.425-42.625 72.728-42 30.303.625 42.424 44.792 72.727 45 30.303.208 42.424-43.792 72.727-44 30.303-.208 42.424 40.917 72.727 43 30.303 2.083 42.425-34.042 72.728-33 30.303 1.042 57.575 30.083 72.727 38"></path>
        <path d="M10 550c13.068 1.875 34.508 15.875 62.727 9 28.22-6.875 42.425-44.917 72.728-42 30.303 2.917 42.424 52.458 72.727 56 30.303 3.542 42.424-38.583 72.727-39 30.303-.417 42.424 38.042 72.727 37 30.303-1.042 42.425-42.625 72.728-42 30.303.625 42.424 44.792 72.727 45 30.303.208 42.424-43.792 72.727-44 30.303-.208 42.424 40.917 72.727 43 30.303 2.083 42.425-34.042 72.728-33 30.303 1.042 57.575 30.083 72.727 38"></path>
        <path d="M10 520c13.068 1.875 34.508 15.875 62.727 9 28.22-6.875 42.425-44.917 72.728-42 30.303 2.917 42.424 52.458 72.727 56 30.303 3.542 42.424-38.583 72.727-39 30.303-.417 42.424 38.042 72.727 37 30.303-1.042 42.425-42.625 72.728-42 30.303.625 42.424 44.792 72.727 45 30.303.208 42.424-43.792 72.727-44 30.303-.208 42.424 40.917 72.727 43 30.303 2.083 42.425-34.042 72.728-33 30.303 1.042 57.575 30.083 72.727 38"></path>
        <path d="M10 490c13.068 1.875 34.508 15.875 62.727 9 28.22-6.875 42.425-44.917 72.728-42 30.303 2.917 42.424 52.458 72.727 56 30.303 3.542 42.424-38.583 72.727-39 30.303-.417 42.424 38.042 72.727 37 30.303-1.042 42.425-42.625 72.728-42 30.303.625 42.424 44.792 72.727 45 30.303.208 42.424-43.792 72.727-44 30.303-.208 42.424 40.917 72.727 43 30.303 2.083 42.425-34.042 72.728-33 30.303 1.042 57.575 30.083 72.727 38"></path>
        <path d="M10 460c13.068 1.875 34.508 15.875 62.727 9 28.22-6.875 42.425-44.917 72.728-42 30.303 2.917 42.424 52.458 72.727 56 30.303 3.542 42.424-38.583 72.727-39 30.303-.417 42.424 38.042 72.727 37 30.303-1.042 42.425-42.625 72.728-42 30.303.625 42.424 44.792 72.727 45 30.303.208 42.424-43.792 72.727-44 30.303-.208 42.424 40.917 72.727 43 30.303 2.083 42.425-34.042 72.728-33 30.303 1.042 57.575 30.083 72.727 38"></path>
        <path d="M10 430c13.068 1.875 34.508 15.875 62.727 9 28.22-6.875 42.425-44.917 72.728-42 30.303 2.917 42.424 52.458 72.727 56 30.303 3.542 42.424-38.583 72.727-39 30.303-.417 42.424 38.042 72.727 37 30.303-1.042 42.425-42.625 72.728-42 30.303.625 42.424 44.792 72.727 45 30.303.208 42.424-43.792 72.727-44 30.303-.208 42.424 40.917 72.727 43 30.303 2.083 42.425-34.042 72.728-33 30.303 1.042 57.575 30.083 72.727 38"></path>
        <path d="M10 400c13.068 1.875 34.508 15.875 62.727 9 28.22-6.875 42.425-44.917 72.728-42 30.303 2.917 42.424 52.458 72.727 56 30.303 3.542 42.424-38.583 72.727-39 30.303-.417 42.424 38.042 72.727 37 30.303-1.042 42.425-42.625 72.728-42 30.303.625 42.424 44.792 72.727 45 30.303.208 42.424-43.792 72.727-44 30.303-.208 42.424 40.917 72.727 43 30.303 2.083 42.425-34.042 72.728-33 30.303 1.042 57.575 30.083 72.727 38"></path>
        <path d="M10 370c13.068 1.875 34.508 15.875 62.727 9 28.22-6.875 42.425-44.917 72.728-42 30.303 2.917 42.424 52.458 72.727 56 30.303 3.542 42.424-38.583 72.727-39 30.303-.417 42.424 38.042 72.727 37 30.303-1.042 42.425-42.625 72.728-42 30.303.625 42.424 44.792 72.727 45 30.303.208 42.424-43.792 72.727-44 30.303-.208 42.424 40.917 72.727 43 30.303 2.083 42.425-34.042 72.728-33 30.303 1.042 57.575 30.083 72.727 38"></path>
        <path d="M10 340c13.068 1.875 34.508 15.875 62.727 9 28.22-6.875 42.425-44.917 72.728-42 30.303 2.917 42.424 52.458 72.727 56 30.303 3.542 42.424-38.583 72.727-39 30.303-.417 42.424 38.042 72.727 37 30.303-1.042 42.425-42.625 72.728-42 30.303.625 42.424 44.792 72.727 45 30.303.208 42.424-43.792 72.727-44 30.303-.208 42.424 40.917 72.727 43 30.303 2.083 42.425-34.042 72.728-33 30.303 1.042 57.575 30.083 72.727 38"></path>
        <path d="M10 310c13.068 1.875 34.508 15.875 62.727 9 28.22-6.875 42.425-44.917 72.728-42 30.303 2.917 42.424 52.458 72.727 56 30.303 3.542 42.424-38.583 72.727-39 30.303-.417 42.424 38.042 72.727 37 30.303-1.042 42.425-42.625 72.728-42 30.303.625 42.424 44.792 72.727 45 30.303.208 42.424-43.792 72.727-44 30.303-.208 42.424 40.917 72.727 43 30.303 2.083 42.425-34.042 72.728-33 30.303 1.042 57.575 30.083 72.727 38"></path>
        <path d="M10 280c13.068 1.875 34.508 15.875 62.727 9 28.22-6.875 42.425-44.917 72.728-42 30.303 2.917 42.424 52.458 72.727 56 30.303 3.542 42.424-38.583 72.727-39 30.303-.417 42.424 38.042 72.727 37 30.303-1.042 42.425-42.625 72.728-42 30.303.625 42.424 44.792 72.727 45 30.303.208 42.424-43.792 72.727-44 30.303-.208 42.424 40.917 72.727 43 30.303 2.083 42.425-34.042 72.728-33 30.303 1.042 57.575 30.083 72.727 38"></path>
        <path d="M10 250c13.068 1.875 34.508 15.875 62.727 9 28.22-6.875 42.425-44.917 72.728-42 30.303 2.917 42.424 52.458 72.727 56 30.303 3.542 42.424-38.583 72.727-39 30.303-.417 42.424 38.042 72.727 37 30.303-1.042 42.425-42.625 72.728-42 30.303.625 42.424 44.792 72.727 45 30.303.208 42.424-43.792 72.727-44 30.303-.208 42.424 40.917 72.727 43 30.303 2.083 42.425-34.042 72.728-33 30.303 1.042 57.575 30.083 72.727 38"></path>
        <path d="M10 220c13.068 1.875 34.508 15.875 62.727 9 28.22-6.875 42.425-44.917 72.728-42 30.303 2.917 42.424 52.458 72.727 56 30.303 3.542 42.424-38.583 72.727-39 30.303-.417 42.424 38.042 72.727 37 30.303-1.042 42.425-42.625 72.728-42 30.303.625 42.424 44.792 72.727 45 30.303.208 42.424-43.792 72.727-44 30.303-.208 42.424 40.917 72.727 43 30.303 2.083 42.425-34.042 72.728-33 30.303 1.042 57.575 30.083 72.727 38"></path>
        <path d="M10 190c13.068 1.875 34.508 15.875 62.727 9 28.22-6.875 42.425-44.917 72.728-42 30.303 2.917 42.424 52.458 72.727 56 30.303 3.542 42.424-38.583 72.727-39 30.303-.417 42.424 38.042 72.727 37 30.303-1.042 42.425-42.625 72.728-42 30.303.625 42.424 44.792 72.727 45 30.303.208 42.424-43.792 72.727-44 30.303-.208 42.424 40.917 72.727 43 30.303 2.083 42.425-34.042 72.728-33 30.303 1.042 57.575 30.083 72.727 38"></path>
        <path d="M10 160c13.068 1.875 34.508 15.875 62.727 9 28.22-6.875 42.425-44.917 72.728-42 30.303 2.917 42.424 52.458 72.727 56 30.303 3.542 42.424-38.583 72.727-39 30.303-.417 42.424 38.042 72.727 37 30.303-1.042 42.425-42.625 72.728-42 30.303.625 42.424 44.792 72.727 45 30.303.208 42.424-43.792 72.727-44 30.303-.208 42.424 40.917 72.727 43 30.303 2.083 42.425-34.042 72.728-33 30.303 1.042 57.575 30.083 72.727 38"></path>
        <path d="M10 130c13.068 1.875 34.508 15.875 62.727 9 28.22-6.875 42.425-44.917 72.728-42 30.303 2.917 42.424 52.458 72.727 56 30.303 3.542 42.424-38.583 72.727-39 30.303-.417 42.424 38.042 72.727 37 30.303-1.042 42.425-42.625 72.728-42 30.303.625 42.424 44.792 72.727 45 30.303.208 42.424-43.792 72.727-44 30.303-.208 42.424 40.917 72.727 43 30.303 2.083 42.425-34.042 72.728-33 30.303 1.042 57.575 30.083 72.727 38"></path>
        <path d="M10 100c13.068 1.875 34.508 15.875 62.727 9 28.22-6.875 42.425-44.917 72.728-42 30.303 2.917 42.424 52.458 72.727 56 30.303 3.542 42.424-38.583 72.727-39 30.303-.417 42.424 38.042 72.727 37 30.303-1.042 42.425-42.625 72.728-42 30.303.625 42.424 44.792 72.727 45 30.303.208 42.424-43.792 72.727-44 30.303-.208 42.424 40.917 72.727 43 30.303 2.083 42.425-34.042 72.728-33 30.303 1.042 57.575 30.083 72.727 38"></path>
        <path d="M10 70c13.068 1.875 34.508 15.875 62.727 9 28.22-6.875 42.425-44.917 72.728-42 30.303 2.917 42.424 52.458 72.727 56 30.303 3.542 42.424-38.583 72.727-39 30.303-.417 42.424 38.042 72.727 37 30.303-1.042 42.425-42.625 72.728-42 30.303.625 42.424 44.792 72.727 45 30.303.208 42.424-43.792 72.727-44 30.303-.208 42.424 40.917 72.727 43 30.303 2.083 42.425-34.042 72.728-33 30.303 1.042 57.575 30.083 72.727 38"></path>
        <path d="M10 40c13.068 1.875 34.508 15.875 62.727 9 28.22-6.875 42.425-44.917 72.728-42 30.303 2.917 42.424 52.458 72.727 56 30.303 3.542 42.424-38.583 72.727-39 30.303-.417 42.424 38.042 72.727 37 30.303-1.042 42.425-42.625 72.728-42 30.303.625 42.424 44.792 72.727 45 30.303.208 42.424-43.792 72.727-44 30.303-.208 42.424 40.917 72.727 43 30.303 2.083 42.425-34.042 72.728-33 30.303 1.042 57.575 30.083 72.727 38"></path>
      </g>
    </svg>